<svg xmlns="http://www.w3.org/2000/svg" xmlns:xlink="http://www.w3.org/1999/xlink" style="vertical-align:-3.755ex;max-width:80000px" width="100ex" height="6.384ex" viewBox="0 -1132.2 43055.4 2748.8"><defs><path id="a" stroke-width="1" d="M208 74q0-24 46-28 18 0 18-11 0-1-2-13-3-14-6-18t-13-4h-12q-10 0-34 1t-64 1Q70 2 50 0h-8q-7 7-7 11 2 27 13 35h14q70 3 102 50 6 6 181 305t178 303q7 12 24 12h25q6-9 6-10l28-323q28-323 30-326 5-11 65-11 25 0 25-10 0-2-3-14-3-15-5-18t-14-4h-14q-11 0-39 1t-73 1q-94 0-123-2h-12q-6 6-6 9t2 18q4 13 6 16l4 3h20q54 3 64 17l-12 150H283l-34-58q-41-69-41-81zm308 186q0 11-12 156t-14 146l-27-43q-16-27-63-107l-90-152 103-1q103 0 103 1z"/><path id="b" stroke-width="1" d="M88-21H75L55-7v287q1 134 5 148 1 2 1 3 16 69 91 118t180 49q111 0 190-54t88-139q1-6 1-211V-7q-7-15-20-15-9 0-19 13l-2 414q-7 28-14 44t-27 36q-31 34-84 53t-111 20q-83 0-155-40T96 401q-1-5-1-208V-7q-7-14-20-14z"/><path id="c" stroke-width="1" d="M231 637q-27 0-32 1t-5 11q0 27 11 33 1 1 130 1 259 0 273-2 63-10 105-45t43-92q0-64-58-115t-133-69l-10-3q64-9 105-46t42-92q0-73-72-141T453 1q-7-1-211-1Q42 0 39 2q-4 3-4 8 0 7 2 14 5 19 10 21 4 1 15 1h6q27 0 60 3 14 3 19 12 3 4 72 278t69 289q0 7-57 9zm418-93q0 30-15 56t-49 34q-7 2-92 3h-42q-22 0-35-1h-13q-15-1-19-10-2-4-32-120 0-3-1-6l-31-126h81q81 0 93 2 60 10 107 58t48 110zm-54-315q0 44-23 73t-60 34q-6 1-83 1-118 0-119-1 0-2-17-73t-35-141l-18-70q0-4 12-4t81-2q89 0 96 1 62 7 114 58t52 124z"/><path id="d" stroke-width="1" d="M69 544v46h361v-46H69z"/><path id="e" stroke-width="1" d="M56 347q0 13 14 20h637q15-8 15-20 0-11-14-19l-318-1H72q-16 5-16 20zm0-194q0 15 16 20h636q14-10 14-20 0-13-15-20H70q-14 7-14 20z"/><path id="f" stroke-width="1" d="M591 598h1q12 0 19-15V376v-80q-1-134-5-148-1-2-1-3-19-77-98-122T333-22q-65 0-124 21T106 66 56 173q-1 7-1 211l1 201q10 13 19 13 10 0 20-13V378l1-206 2-10q14-67 83-105t151-39q83 0 155 40t83 117q1 5 1 208v200q8 15 20 15z"/></defs><g fill="currentColor" stroke="currentColor" stroke-width="0"><g transform="matrix(1 0 0 -1 18164 0)"><g transform="translate(24)"><use xlink:href="#a"/><use x="972" xlink:href="#b"/><use x="1862" xlink:href="#c"/></g><g transform="translate(0 533)"><use x="-70" transform="scale(.707)" xlink:href="#d"/><use transform="matrix(5.8479 0 0 .707 -151.225 0)" xlink:href="#d"/><use x="3277" transform="scale(.707)" xlink:href="#d"/></g><use x="2949" xlink:href="#e"/><g transform="translate(4005)"><use x="24" xlink:href="#a"/><g transform="translate(0 533)"><use x="-70" transform="scale(.707)" xlink:href="#d"/><use transform="matrix(.66463 0 0 .707 209.067 0)" xlink:href="#d"/><use x="630" transform="scale(.707)" xlink:href="#d"/></g></g><use x="5027" xlink:href="#f"/><g transform="translate(5917)"><use x="24" xlink:href="#c"/><g transform="translate(0 500)"><use x="-70" transform="scale(.707)" xlink:href="#d"/><use transform="matrix(.68956 0 0 .707 207.334 0)" xlink:href="#d"/><use x="643" transform="scale(.707)" xlink:href="#d"/></g></g></g><g transform="matrix(1 0 0 -1 18164 1505)"><g transform="translate(24)"><use xlink:href="#a"/><use x="972" xlink:href="#f"/><use x="1862" xlink:href="#c"/></g><g transform="translate(0 533)"><use x="-70" transform="scale(.707)" xlink:href="#d"/><use transform="matrix(5.8479 0 0 .707 -151.225 0)" xlink:href="#d"/><use x="3277" transform="scale(.707)" xlink:href="#d"/></g><use x="2949" xlink:href="#e"/><g transform="translate(4005)"><use x="24" xlink:href="#a"/><g transform="translate(0 533)"><use x="-70" transform="scale(.707)" xlink:href="#d"/><use transform="matrix(.66463 0 0 .707 209.067 0)" xlink:href="#d"/><use x="630" transform="scale(.707)" xlink:href="#d"/></g></g><use x="5027" xlink:href="#b"/><g transform="translate(5917)"><use x="24" xlink:href="#c"/><g transform="translate(0 500)"><use x="-70" transform="scale(.707)" xlink:href="#d"/><use transform="matrix(.68956 0 0 .707 207.334 0)" xlink:href="#d"/><use x="643" transform="scale(.707)" xlink:href="#d"/></g></g></g></g></svg>