<?xml version="1.0" standalone="no"?>
<!DOCTYPE svg PUBLIC "-//W3C//DTD SVG 1.1//EN" "https://www.w3.org/Graphics/SVG/1.1/DTD/svg11.dtd">

<svg width="800" height="600" version="1.1" xmlns="http://www.w3.org/2000/svg">
	<ellipse stroke="black" stroke-width="1" fill="none" cx="98.5" cy="256.5" rx="30" ry="30"/>
	<text x="93.5" y="262.5" font-family="Times New Roman" font-size="20">1</text>
	<ellipse stroke="black" stroke-width="1" fill="none" cx="222.5" cy="256.5" rx="30" ry="30"/>
	<text x="217.5" y="262.5" font-family="Times New Roman" font-size="20">2</text>
	<ellipse stroke="black" stroke-width="1" fill="none" cx="353.5" cy="262.5" rx="30" ry="30"/>
	<text x="348.5" y="268.5" font-family="Times New Roman" font-size="20">3</text>
	<ellipse stroke="black" stroke-width="1" fill="none" cx="470.5" cy="262.5" rx="30" ry="30"/>
	<text x="465.5" y="268.5" font-family="Times New Roman" font-size="20">4</text>
	<ellipse stroke="black" stroke-width="1" fill="none" cx="583.5" cy="262.5" rx="30" ry="30"/>
	<text x="578.5" y="268.5" font-family="Times New Roman" font-size="20">5</text>
	<ellipse stroke="black" stroke-width="1" fill="none" cx="583.5" cy="262.5" rx="24" ry="24"/>
	<polygon stroke="black" stroke-width="1" points="128.5,256.5 192.5,256.5"/>
	<polygon fill="black" stroke-width="1" points="192.5,256.5 184.5,251.5 184.5,261.5"/>
	<text x="155.5" y="247.5" font-family="Times New Roman" font-size="20">a</text>
	<path stroke="black" stroke-width="1" fill="none" d="M 248.935,242.533 A 104.957,104.957 0 0 1 328.453,246.175"/>
	<polygon fill="black" stroke-width="1" points="328.453,246.175 323.302,238.271 319.091,247.34"/>
	<text x="284.5" y="227.5" font-family="Times New Roman" font-size="20">b</text>
	<polygon stroke="black" stroke-width="1" points="383.5,262.5 440.5,262.5"/>
	<polygon fill="black" stroke-width="1" points="440.5,262.5 432.5,257.5 432.5,267.5"/>
	<text x="407.5" y="283.5" font-family="Times New Roman" font-size="20">d</text>
	<polygon stroke="black" stroke-width="1" points="500.5,262.5 553.5,262.5"/>
	<polygon fill="black" stroke-width="1" points="553.5,262.5 545.5,257.5 545.5,267.5"/>
	<text x="522.5" y="253.5" font-family="Times New Roman" font-size="20">e</text>
	<path stroke="black" stroke-width="1" fill="none" d="M 457.275,235.703 A 22.5,22.5 0 1 1 483.725,235.703"/>
	<text x="465.5" y="186.5" font-family="Times New Roman" font-size="20">d</text>
	<polygon fill="black" stroke-width="1" points="483.725,235.703 492.473,232.17 484.382,226.292"/>
	<path stroke="black" stroke-width="1" fill="none" d="M 327.761,277.683 A 98.153,98.153 0 0 1 246.743,273.973"/>
	<polygon fill="black" stroke-width="1" points="246.743,273.973 251.598,282.062 256.141,273.154"/>
	<text x="281.5" y="306.5" font-family="Times New Roman" font-size="20">a</text>
	<path stroke="black" stroke-width="1" fill="none" d="M 340.275,235.703 A 22.5,22.5 0 1 1 366.725,235.703"/>
	<text x="348.5" y="186.5" font-family="Times New Roman" font-size="20">c</text>
	<polygon fill="black" stroke-width="1" points="366.725,235.703 375.473,232.17 367.382,226.292"/>
	<path stroke="black" stroke-width="1" fill="none" d="M 235.725,283.297 A 22.5,22.5 0 1 1 209.275,283.297"/>
	<text x="217.5" y="345.5" font-family="Times New Roman" font-size="20">a</text>
	<polygon fill="black" stroke-width="1" points="209.275,283.297 200.527,286.83 208.618,292.708"/>
	<path stroke="black" stroke-width="1" fill="none" d="M 450.619,284.9 A 150.495,150.495 0 0 1 241.275,279.835"/>
	<polygon fill="black" stroke-width="1" points="241.275,279.835 243.32,289.045 250.449,282.032"/>
	<text x="339.5" y="345.5" font-family="Times New Roman" font-size="20">a</text>
</svg>
